<svg xmlns="http://www.w3.org/2000/svg" xmlns:xlink="http://www.w3.org/1999/xlink" version="1.1" viewBox="815.73 450.18 288.54 56.64"><g id="document" fill="#ffffff" fill-rule="nonzero" stroke="#000000" stroke-width="0" stroke-linecap="butt" stroke-linejoin="miter" stroke-miterlimit="10" stroke-dasharray="" stroke-dashoffset="0" font-family="none" font-weight="none" font-size="none" text-anchor="none" style="mix-blend-mode: normal"/><g fill="none" fill-rule="nonzero" stroke="none" stroke-width="1" stroke-linecap="butt" stroke-linejoin="miter" stroke-miterlimit="10" stroke-dasharray="" stroke-dashoffset="0" font-family="none" font-weight="none" font-size="none" text-anchor="none" style="mix-blend-mode: normal"><g id="stage"><g id="layer1 1"><g id="Group 1"><g id="Group 1"><g id="Group 1"><path d="M1094.63611,450.25926c0.89209,-0.11817 2.02295,-0.1241 2.88428,0.13541c0.90381,0.27271 1.57471,0.91108 2.00391,1.74028c0.48779,0.9454 0.7998,2.07747 1.15576,3.08245c0.84082,2.37723 2.27051,5.42485 1.44141,7.96536c-0.24756,0.75678 -0.71338,1.34062 -1.37549,1.77802c-1.29492,0.85562 -3.10693,1.26403 -4.56738,1.77846c-2.67627,0.94187 -5.50635,1.91303 -8.03174,3.21367c3.64893,2.2636 7.63037,3.77965 11.04199,6.46586c2.74365,2.15948 4.57617,4.78097 4.98779,8.29733c0.38672,3.29773 -0.43506,6.46791 -2.50488,9.07622c-1.43848,1.81463 -3.375,3.21426 -5.3291,4.42455c-3.7793,2.34004 -16.52783,8.13727 -20.5957,8.60206c-0.69434,-0.00586 -1.40332,-0.02797 -2.07422,-0.22976c-0.93457,-0.2813 -1.61133,-0.95081 -2.0625,-1.7972c-0.44385,-0.83131 -0.68848,-1.79047 -1.02979,-2.66893c-0.97266,-2.5039 -2.56494,-5.4906 -1.71094,-8.22294c0.20361,-0.64783 0.55371,-1.2037 1.11182,-1.59937c1.42969,-1.0145 3.45117,-1.55646 5.08008,-2.19272c2.99707,-1.17119 6.08789,-2.32481 8.94727,-3.80718c-3.48633,-2.22919 -7.41211,-3.67421 -10.83105,-6.08088c-2.87256,-2.02315 -5.1416,-4.61111 -5.74805,-8.16597c-0.52441,-3.07881 0.06299,-6.35823 1.88525,-8.92202c3.87012,-5.44828 12.63135,-8.37201 18.73096,-10.66188c2.10938,-0.79191 4.36816,-1.83036 6.59033,-2.21081z" id="Path 1" fill="#000000"/><path d="M1094.63465,451.41413c0.66357,-0.05389 1.42529,-0.13106 2.08008,-0.01423c0.55957,0.09961 1.11768,0.38643 1.43994,0.86378c0.87744,1.29846 2.60449,6.50332 2.92822,8.12245c0.14209,0.70948 0.20947,1.47241 0.06738,2.18775c-0.11426,0.57051 -0.42187,0.8423 -0.89355,1.14513c-1.19385,0.76615 -2.63965,1.17222 -3.96826,1.65267c-3.06152,1.10837 -8.33643,2.73307 -10.96436,4.52134c3.02197,1.96795 6.49072,3.34224 9.6123,5.17913c3.34277,1.96648 6.81445,4.519 7.82959,8.46866c0.72949,2.73058 0.3252,5.63982 -1.11914,8.06903c-3.30908,5.56206 -12.2124,8.87677 -18.01172,11.21696c-2.44336,0.9858 -4.97314,2.11336 -7.53076,2.76426c-0.65332,0.07805 -1.47656,0.10851 -2.10352,-0.10646c-0.77051,-0.26461 -1.18652,-1.0063 -1.51904,-1.70261c-0.74854,-1.57579 -2.46533,-6.05057 -2.67627,-7.66385c-0.09521,-0.72588 -0.01904,-1.38264 0.21826,-2.07192c0.18311,-0.5298 0.83789,-0.8628 1.30957,-1.10852c1.27881,-0.66643 2.72168,-1.13473 4.0708,-1.64711c3.09961,-1.17807 8.65576,-3.2062 11.28076,-5.02171c-5.53125,-3.37827 -15.49805,-6.38268 -17.74365,-13.05999c-0.85693,-2.54827 -0.69287,-5.52413 0.50684,-7.93461c0.88477,-1.77802 2.29248,-3.23827 3.86279,-4.43114c5.22363,-3.96825 14.97656,-7.30547 21.32373,-9.42902z" id="Path 1" fill="#ef5d16"/><path d="M843.0032,450.25869c0.95962,-0.09666 2.10161,-0.13476 3.02534,0.15576c0.91772,0.28862 1.56841,0.92275 2.00186,1.76954c0.48926,0.95565 0.80054,2.09344 1.15649,3.10795c0.83818,2.38909 2.21865,5.37418 1.40068,7.92889c-0.22969,0.71768 -0.66782,1.30415 -1.29683,1.72032c-1.26357,0.83615 -3.03369,1.23665 -4.46074,1.73585c-2.72651,0.95359 -5.64316,1.93471 -8.20547,3.2762c3.64556,2.2942 7.65952,3.7836 11.07891,6.48812c2.72622,2.15626 4.55845,4.79313 4.95806,8.29689c0.37676,3.30344 -0.44414,6.46322 -2.52305,9.07241c-4.06289,5.09903 -12.6145,8.19775 -18.57891,10.58509c-2.31899,0.92811 -4.7688,2.12917 -7.26328,2.41589c-0.70679,-0.00556 -1.43046,0.00073 -2.11214,-0.20999c-0.96486,-0.298 -1.65155,-0.99518 -2.11515,-1.87291c-0.55863,-1.0577 -0.91374,-2.29625 -1.3242,-3.42029c-0.863,-2.36318 -2.21284,-4.88465 -1.39393,-7.46118c0.21149,-0.65061 0.62884,-1.21468 1.18912,-1.60742c1.44302,-1.00089 3.46148,-1.53757 5.09405,-2.16695c2.96191,-1.14205 6.03735,-2.29479 8.84619,-3.77994c-3.11675,-1.99035 -6.63896,-3.36216 -9.77716,-5.3733c-3.14164,-2.01349 -5.86573,-4.56761 -6.68329,-8.34375c-0.65682,-3.0337 -0.20854,-6.4045 1.49181,-9.03009c3.66023,-5.65182 12.59691,-8.66107 18.70472,-10.95692c2.19976,-0.82685 4.48726,-1.84028 6.78691,-2.33017z" id="Path 1" fill="#000000"/><path d="M843.13826,451.40907c0.69097,-0.0495 1.4937,-0.14482 2.17266,0.01873c0.61729,0.14871 1.11797,0.46578 1.44756,1.01415c0.69243,1.15207 2.51704,6.45728 2.80034,7.84065c0.15703,0.76718 0.22295,1.54929 0.03091,2.31646c-0.09097,0.36331 -0.22529,0.71417 -0.54111,0.9385c-1.39248,0.98873 -3.32593,1.48998 -4.92217,2.06518c-3.39741,1.22435 -7.21963,2.40198 -10.31909,4.25908c2.70996,1.94071 7.04971,3.65723 10.13174,5.54082c3.2937,2.0129 6.38994,4.44358 7.33052,8.36659c0.66768,2.74479 0.21343,5.64245 -1.26211,8.05146c-3.41045,5.51725 -12.44927,8.79447 -18.28901,11.14096c-2.30552,0.92635 -4.72104,2.04687 -7.14463,2.61827c-0.58022,0.06385 -1.18491,0.08552 -1.76121,-0.02519c-0.62881,-0.12066 -1.04659,-0.45131 -1.39644,-0.97716c-0.80798,-1.21439 -2.7623,-6.58257 -3.07302,-8.05278c-0.12258,-0.58003 -0.15122,-1.19989 -0.03063,-1.78285c0.09598,-0.46391 0.19223,-0.9057 0.57412,-1.21102c1.44293,-1.15333 3.77407,-1.76748 5.49031,-2.42775c3.35552,-1.29112 7.78447,-2.86003 10.7707,-4.80001c-1.04165,-0.72691 -2.26011,-1.27106 -3.38701,-1.85358c-4.98047,-2.57492 -12.40986,-5.49645 -14.34734,-11.26704c-0.8499,-2.53143 -0.68136,-5.49894 0.51018,-7.89331c3.36019,-6.75258 18.15508,-11.51071 25.21475,-13.88016z" id="Path 1" fill="#ef5d16"/><path d="M1036.11414,460.37427c2.17383,-0.95344 14.59717,-0.32845 17.55176,0.08771c1.84863,0.26051 3.67383,0.67507 5.41699,1.35365c3.104,1.20853 5.49609,3.17633 6.85693,6.26802c1.5293,3.47711 1.49707,7.9103 0.11865,11.42914c-1.3418,3.42644 -3.71924,5.47654 -6.79687,7.33158c1.61133,1.84113 5.18115,5.42792 6.16113,7.45576c0.39551,0.81418 0.56982,1.71739 0.5083,2.62017c-0.10107,1.48603 -0.93896,2.44825 -2.01855,3.37944c-1.96729,1.69631 -4.09131,4.14456 -6.92139,3.91788c-1.71387,-0.13736 -2.74512,-1.24602 -3.78662,-2.48369c-0.76904,-0.91405 -4.34033,-5.66149 -5.18262,-5.82447c-0.77637,0.81067 0.23438,5.29496 -0.88477,7.05087c-0.39111,0.61415 -1.0459,0.94802 -1.74316,1.09768c-1.55127,0.33299 -8.46387,0.36067 -9.64014,-0.41456c-0.57568,-0.37971 -0.86572,-1.0558 -0.9917,-1.71432c-0.33984,-1.79647 -0.12451,-3.99578 -0.12451,-5.83794l0.00439,-11.74632l-0.00879,-14.18886c-0.00146,-2.47886 -0.21387,-5.22511 0.16113,-7.67556c0.14941,-0.97175 0.79541,-1.34574 1.31982,-2.10618zM1048.00281,475.48216c1.2041,-0.1047 2.4668,-0.34793 3.6123,-0.73174l0.41162,-0.19447l-0.06299,-0.21555c-1.02686,-0.53713 -2.77734,-0.46464 -3.9126,-0.53522z" id="CompoundPath 1" fill="#000000"/><path d="M1037.41785,461.08975c1.70947,-0.10455 3.46436,-0.03046 5.17969,-0.03251c4.8457,-0.00571 9.94775,-0.19505 14.61914,1.27047c3.14941,0.98785 5.91504,2.79472 7.46777,5.78244c1.52783,2.93837 1.68896,6.84849 0.69434,9.97987c-1.31982,4.15833 -4.29639,6.41007 -8.01562,8.32866c1.9292,2.44357 6.05566,6.44389 7.39453,8.84426c0.03369,0.57168 0.06885,1.17866 0.02783,1.75005c-0.12598,1.76645 -3.7002,4.12172 -5.04492,5.27446c-0.71338,0.57769 -1.64355,0.97057 -2.57666,0.89223c-0.51123,-0.04305 -0.95654,-0.21262 -1.36084,-0.52834c-1.23779,-0.9634 -2.24268,-2.3746 -3.2666,-3.56072c-1.88672,-2.17457 -3.75586,-4.36583 -5.60449,-6.57378c-0.06738,2.16549 0.47607,8.4893 -0.41162,10.01399c-0.24902,0.42891 -0.7793,0.70187 -1.24805,0.81989c-1.36523,0.34427 -7.86328,0.40445 -9.02783,-0.33578c-0.39404,-0.2504 -0.53467,-0.52146 -0.63721,-0.96603c-0.47607,-2.0542 -0.28125,-4.37901 -0.28271,-6.47845l-0.00439,-8.72243l-0.00146,-14.63974c0.00146,-2.63335 -0.08936,-5.30462 0.03516,-7.93402c0.03369,-0.68854 0.03223,-1.73453 0.41309,-2.321c0.36475,-0.56363 1.04004,-0.72149 1.65088,-0.86353zM1048.00281,475.48216c1.2041,-0.1047 2.4668,-0.34793 3.6123,-0.73174l0.41162,-0.19447l-0.06299,-0.21555c-1.02686,-0.53713 -2.77734,-0.46464 -3.9126,-0.53522z" id="CompoundPath 1" fill="#ef5d16"/><path d="M1046.92615,472.6419c1.41211,0.07776 6.1333,0.11085 7.03125,1.1668c0.19336,0.22741 0.14063,0.35745 0.11572,0.63538c-0.25928,0.46479 -0.78076,0.71124 -1.22168,0.97863c-1.88818,0.78387 -3.90674,1.03647 -5.90918,1.38074c-0.02344,-1.38616 -0.01025,-2.77495 -0.01611,-4.16155zM1048.00281,475.48216c1.2041,-0.1047 2.4668,-0.34793 3.6123,-0.73174l0.41162,-0.19447l-0.06299,-0.21555c-1.02686,-0.53713 -2.77734,-0.46464 -3.9126,-0.53522z" id="CompoundPath 1" fill="#000000"/><path d="M867.18748,459.20425c1.6894,-0.11612 3.34863,-0.01962 4.97446,0.48646c3.61846,1.12624 6.17974,3.96767 7.89976,7.24079c4.26929,8.12409 4.00957,18.37531 1.35542,26.93724c0.47256,0.50784 0.98774,0.97995 1.47656,1.47285c0.91963,0.92767 1.55991,1.78066 1.54395,3.14104c-0.02563,2.21088 -1.81084,3.77218 -3.27773,5.20256c-1.12075,1.09299 -2.30977,2.07733 -3.9668,2.04834c-1.61279,-0.02812 -2.53037,-0.85855 -3.57861,-1.94745c-0.96094,-0.06209 -3.13799,0.69147 -4.25742,0.83424c-2.83037,0.36082 -6.08584,-0.6821 -8.31958,-2.41692c-4.53735,-3.52426 -6.55298,-9.94341 -7.2334,-15.41819c-0.92534,-7.44654 0.07705,-16.66699 4.84219,-22.76383c2.21689,-2.83631 4.98223,-4.38472 8.54121,-4.81714zM868.58113,491.8576c2.71758,-4.10532 3.30659,-9.43571 2.33965,-14.2057c-0.25415,-1.25319 -1.2564,-4.88816 -2.34946,-5.57817c-0.09946,-0.06267 -0.21094,-0.09987 -0.32739,-0.11334c-2.73706,4.13168 -3.24551,9.64116 -2.27739,14.4214c0.26411,1.30401 1.12485,4.55385 2.28794,5.32381c0.10122,0.06707 0.21108,0.11612 0.32666,0.152z" id="CompoundPath 1" fill="#000000"/><path d="M867.26028,460.07232c1.50791,-0.17587 3.03604,-0.0041 4.46704,0.50213c3.73521,1.31484 6.22778,4.20812 7.90356,7.70382c3.77373,7.87222 3.47988,17.71459 0.63955,25.8091c0.52793,0.72398 1.19678,1.30899 1.82798,1.93939c0.63179,0.63099 1.41709,1.39787 1.40991,2.35336c-0.01304,1.73731 -1.67036,3.14119 -2.81514,4.26947c-0.95039,0.93689 -2.19609,2.25803 -3.64307,2.2308c-1.29609,-0.02431 -2.37539,-1.42833 -3.18149,-2.28381c-0.76758,-0.1378 -2.89189,0.85372 -3.89634,1.00909c-2.87871,0.44516 -5.7208,-0.30986 -8.06294,-2.01847c-4.27339,-3.11732 -6.29033,-9.01032 -7.07534,-14.0231c-1.14697,-7.32368 -0.27788,-16.31496 4.22241,-22.46203c2.06865,-2.82576 4.75151,-4.49235 8.20386,-5.02976zM868.58113,491.8576c2.71758,-4.10532 3.30659,-9.43571 2.33965,-14.2057c-0.25415,-1.25319 -1.2564,-4.88816 -2.34946,-5.57817c-0.09946,-0.06267 -0.21094,-0.09987 -0.32739,-0.11334c-2.73706,4.13168 -3.24551,9.64116 -2.27739,14.4214c0.26411,1.30401 1.12485,4.55385 2.28794,5.32381c0.10122,0.06707 0.21108,0.11612 0.32666,0.152z" id="CompoundPath 1" fill="#ef5d16"/><path d="M868.26458,470.39807c0.33794,0.15273 0.59136,0.3617 0.84302,0.62997c2.67056,2.847 3.21196,8.10066 3.07734,11.79567c-0.13066,3.58591 -0.97412,8.0377 -3.72129,10.59446c-0.17915,-0.08596 -0.32754,-0.20193 -0.47095,-0.33841c-2.60654,-2.48076 -3.31729,-7.38035 -3.38452,-10.78775c-0.07969,-4.03239 0.75557,-8.88526 3.6564,-11.89393zM868.58113,491.8576c2.71758,-4.10532 3.30659,-9.43571 2.33965,-14.2057c-0.25415,-1.25319 -1.2564,-4.88816 -2.34946,-5.57817c-0.09946,-0.06267 -0.21094,-0.09987 -0.32739,-0.11334c-2.73706,4.13168 -3.24551,9.64116 -2.27739,14.4214c0.26411,1.30401 1.12485,4.55385 2.28794,5.32381c0.10122,0.06707 0.21108,0.11612 0.32666,0.152z" id="CompoundPath 1" fill="#000000"/><path d="M911.18348,459.50869c0.08833,0.00029 0.17666,0.00103 0.26499,0.00264c0.93896,0.0164 2.09473,0.05682 2.78657,0.7865c0.45864,0.48368 0.62593,1.21424 0.73711,1.85168c0.34336,1.96926 0.30762,4.12143 0.39976,6.11895c0.19336,4.18688 0.3854,8.3824 0.27144,12.57441c-0.1875,6.89198 -0.88315,15.3561 -6.19849,20.36946c-2.73486,2.57946 -6.33618,3.79004 -10.07329,3.67626c-3.63647,-0.11085 -6.94834,-1.49789 -9.44795,-4.15803c-5.68345,-6.04866 -5.58281,-16.86702 -5.33101,-24.70308c-0.00454,-2.84407 0.19688,-5.69795 0.36357,-8.53631c0.10093,-1.71827 0.09609,-3.54813 0.43491,-5.23609c0.12451,-0.62074 0.3561,-1.40622 0.80142,-1.87935c0.54243,-0.57622 1.8041,-0.65178 2.54019,-0.66745c1.69058,-0.03588 6.80757,0.06736 7.95659,1.21703c0.48267,0.48294 0.59927,1.38513 0.65288,2.03165c0.15366,1.85519 -0.0939,3.80981 -0.20757,5.66573c-0.18457,3.01203 -0.35713,6.02025 -0.37896,9.03873c-0.02607,3.61168 -0.35742,11.60589 2.29702,14.25198c0.26777,0.26695 0.5209,0.40768 0.90908,0.39933c0.38481,-0.0082 0.72378,-0.30078 0.97266,-0.57007c4.01191,-4.34357 2.27651,-21.20854 1.99966,-27.25618c-0.05273,-1.15303 -0.0542,-2.99871 0.77827,-3.88654c1.09321,-1.16563 5.79507,-1.0189 7.47114,-1.09124z" id="Path 1" fill="#000000"/><path d="M910.87249,460.38467c0.2146,-0.02226 0.43008,-0.03456 0.64585,-0.03661c0.652,-0.00117 1.49751,0.12725 1.96685,0.6263c0.38057,0.4046 0.50625,1.05536 0.59297,1.58385c0.33545,2.04424 0.25693,4.18483 0.34907,6.25089c0.15952,3.57932 0.40327,7.16392 0.31465,10.74983c-0.17329,7.01982 -0.5918,15.71018 -6.02607,20.86076c-2.50298,2.36581 -5.84443,3.63951 -9.2877,3.54022c-3.39609,-0.09533 -6.44502,-1.52615 -8.76797,-3.98231c-5.88838,-6.22644 -5.38037,-18.09166 -5.15596,-26.16831c0.34131,-2.48281 -0.01699,-11.05148 1.38003,-12.65524c0.34131,-0.39186 0.91201,-0.497 1.4061,-0.53771c1.53428,-0.12667 6.60996,0.09928 7.71929,1.04028c0.39507,0.59731 0.42729,1.55368 0.4374,2.25291c0.02593,1.79735 -0.21519,3.6543 -0.31362,5.45472c-0.27466,5.02698 -0.57832,9.98455 -0.17827,15.01549c0.18955,2.38441 0.56484,6.96637 2.5563,8.63105c0.38936,0.32538 0.86235,0.48661 1.37095,0.43799c6.91567,-0.66013 3.7686,-25.51901 3.95288,-30.14901c0.02285,-0.57242 0.06768,-1.42877 0.46934,-1.87994c0.98862,-1.10998 5.04609,-0.93265 6.56792,-1.03515z" id="Path 1" fill="#ef5d16"/><path d="M956.06629,459.35142c2.4126,-0.18378 10.38721,-0.43784 12.33838,0.56129c0.61963,0.66408 0.97559,1.80921 1.21143,2.67684c2.00391,7.3616 3.59473,14.89278 5.37891,22.31471l2.12109,8.83504c0.39844,1.66277 0.90527,3.35659 1.13086,5.04924c0.13037,0.97746 0.22412,2.40447 -0.30908,3.27386c-0.53467,0.87158 -2.0332,1.23914 -2.9707,1.47666c-2.08887,0.52907 -5.87402,1.7767 -7.8208,0.60434c-0.38818,-0.23313 -0.60498,-0.55719 -0.78662,-0.96516c-0.5874,-1.32436 -0.83936,-2.88463 -1.1748,-4.29173c-0.53613,-2.29479 -1.08984,-4.58533 -1.6626,-6.87148l-0.56104,-2.62383c-1.24365,-0.1006 -2.51514,-0.04071 -3.76318,-0.02768c-0.87891,2.79282 -2.8125,12.30614 -3.96387,14.05224c-0.3498,0.53054 -0.92739,0.79924 -1.53516,0.9224c-1.88613,0.38234 -7.50234,-0.89926 -9.11631,-1.97351c-0.57231,-0.38088 -0.83042,-0.8155 -0.95962,-1.485c-0.17681,-0.91683 -0.11279,-1.90835 0.0687,-2.82108c0.96152,-4.83808 2.50166,-9.6993 3.75146,-14.47793c0.63823,-2.43991 5.42842,-21.9558 6.31743,-23.19596c0.53262,-0.74287 1.4647,-0.88462 2.30552,-1.03325z" id="Path 1" fill="#000000"/><path d="M955.4701,460.35787c2.31445,-0.16943 10.2627,-0.44194 12.09082,0.28848c0.55811,0.46889 0.90381,1.63817 1.11035,2.33447c0.70313,2.3828 1.19238,4.87337 1.77393,7.29087l3.47314,14.49901l2.19727,9.10184c0.44238,1.83776 1.01953,3.73894 1.19971,5.62254c0.04688,0.497 0.19775,1.39831 -0.13623,1.78959c-0.01318,0.01523 -0.02783,0.03002 -0.03955,0.0451c-0.61084,0.70684 -1.61865,1.00982 -2.49756,1.2264c-1.60986,0.39713 -5.34961,1.70026 -6.80713,0.79851c-0.36475,-0.22536 -0.5376,-0.50271 -0.6958,-0.88857c-0.52588,-1.28292 -0.74268,-2.80585 -1.06641,-4.15686l-1.8999,-7.89038l-0.47754,-2.10472c-1.74756,0.00644 -3.49658,-0.00425 -5.24561,-0.03192c-0.8291,2.29245 -3.22705,14.11477 -4.50688,14.90771c-1.16528,0.72163 -3.50156,-0.07395 -4.75415,-0.38923c-1.22417,-0.30825 -3.94263,-0.70992 -4.61353,-1.87803c-0.31992,-0.55704 -0.06738,-1.99855 0.05303,-2.62324c0.72305,-3.7508 1.93608,-7.52546 2.90317,-11.22808l6.14517,-23.48049c0.37515,-1.44722 0.41206,-2.41999 1.7937,-3.233z" id="Path 1" fill="#ef5d16"/><path d="M961.0951,475.34202c0.35449,0.60478 0.59033,1.78051 0.60791,2.47725c0.00879,0.28731 -0.08057,0.31264 -0.271,0.51604c-0.31494,-0.06882 -0.5332,-0.07717 -0.78223,-0.29741c-0.20068,-0.89282 0.20068,-1.83776 0.44531,-2.69588z" id="Path 1" fill="#000000"/><path d="M1025.5702,459.81547l0.13477,-0.00805c1.76074,-0.0984 5.39941,-0.45556 6.74561,0.77728c0.73242,0.67111 0.80273,2.18731 0.83496,3.122c0.06738,1.87335 0.44385,5.75477 -0.91992,7.18354c-1.09277,1.14556 -11.43018,0.80788 -13.46338,0.84493c0.00879,1.55881 0.00586,3.11746 -0.01025,4.67627c2.38037,0.11583 10.979,-0.59292 12.48633,0.85035c0.60938,0.58355 0.73975,1.73848 0.76318,2.53538c0.04541,1.60742 0.34131,6.45312 -0.72656,7.55182c-0.43213,0.4459 -1.16748,0.6553 -1.76074,0.75634c-2.67773,0.45527 -7.82227,0.11598 -10.78271,0.15991c-0.02783,1.4667 -0.04102,2.93339 -0.04102,4.40024c2.52393,0.12213 11.4375,-0.60859 13.04443,0.65691c0.78223,0.61474 0.82178,1.67244 0.92871,2.5821c0.12744,1.69763 0.41016,6.21472 -0.62402,7.44273c-0.64893,0.76981 -1.70801,0.98595 -2.66455,1.06019c-3.39697,0.26388 -6.94189,0.05828 -10.35498,0.06648c-2.8916,0.00703 -5.94141,0.23825 -8.81104,-0.00278c-0.76611,-0.06429 -2.04785,-0.16049 -2.62207,-0.68517c-0.85254,-0.77992 -0.7793,-2.65253 -0.79834,-3.71404c-0.12598,-7.39645 0.04395,-14.81165 0.03809,-22.21089c-0.01465,-3.17428 0,-6.34856 0.04688,-9.5224c0.01318,-1.90659 -0.07178,-3.8861 0.13916,-5.78274c0.07031,-0.63319 0.24463,-1.40856 0.71777,-1.87291c0.48926,-0.48089 1.36816,-0.58838 2.02148,-0.66921c1.7959,-0.22229 3.69873,-0.12403 5.50781,-0.13985z" id="Path 1" fill="#000000"/><path d="M1025.4325,460.6957c1.73145,-0.12271 4.72119,-0.45292 6.23145,0.41236c0.96826,1.0126 0.67383,3.89167 0.67236,5.22628c-0.00146,1.11847 0.13623,3.04923 -0.72803,3.87776c-0.89355,0.85592 -11.63379,0.5342 -13.56445,0.50564c0.04688,2.19726 0.00439,4.40097 -0.00732,6.59882c0.2373,-0.0205 0.47607,-0.03807 0.71338,-0.05272c1.98486,-0.12476 10.6333,-0.54313 11.86377,0.60976c0.97559,0.9139 0.61816,4.84086 0.63281,6.26553c0.00732,0.71636 0.02637,1.9615 -0.53613,2.49585c-1.2832,1.21966 -10.61133,0.74052 -12.78809,0.65208c0.03369,2.09549 0.02783,4.19128 -0.01758,6.28647c2.44922,-0.05403 11.76855,-0.573 13.39746,0.42115c0.17432,0.23664 0.3208,0.491 0.39697,0.77611c0.35596,1.31997 0.39551,6.93797 -0.23291,7.97839c-0.22852,0.38015 -0.67529,0.53478 -1.08545,0.63421c-1.77246,0.43067 -10.41211,0.14131 -12.98291,0.15039c-2.20166,0.00791 -4.47803,0.21087 -6.66943,0.06414c-0.80127,-0.05374 -1.74463,-0.14892 -2.43604,-0.57608c-0.36621,-0.57168 -0.41895,-1.60391 -0.46143,-2.27883c-0.12598,-2.0006 -0.03516,-4.0567 -0.03369,-6.06243l0.03809,-12.30585l0.00439,-12.36398c0.00439,-2.34267 -0.10107,-4.75491 0.09961,-7.08733c0.04688,-0.5383 0.1377,-1.09797 0.52148,-1.50858c0.37646,-0.40328 1.04004,-0.50828 1.56152,-0.57403c1.70947,-0.21555 3.52881,-0.10353 5.25439,-0.10499c3.38525,0.01743 6.77051,0.0041 10.15576,-0.04012z" id="Path 1" fill="#ef5d16"/><path d="M935.49109,459.81547c1.71064,-0.09826 5.56055,-0.47006 6.86133,0.7067c0.71777,0.64944 0.83188,2.17515 0.86411,3.08847c0.06621,1.87511 0.46289,5.85859 -0.89956,7.28692c-1.10142,1.1545 -11.38022,0.79954 -13.46924,0.83585l-0.00571,4.67422c2.40747,0.12667 10.86152,-0.58457 12.42451,0.80818c0.60659,0.54064 0.75044,1.55485 0.80039,2.31822c0.11221,1.71124 0.34893,6.71846 -0.79043,7.93446c-1.18623,1.26593 -10.3812,0.76937 -12.47373,0.79558l-0.01333,4.40126c2.56055,0.12945 11.32559,-0.62103 13.01587,0.64973c0.76846,0.57769 0.82207,1.57711 0.95098,2.45323c0.02065,1.80013 0.48574,6.2383 -0.63428,7.59912c-0.58462,0.71036 -1.56709,0.94378 -2.44131,1.02783c-3.49116,0.33578 -7.41562,0.06897 -10.96772,0.07366c-2.8563,0.00381 -5.89878,0.28365 -8.73208,-0.01362c-0.75454,-0.07922 -1.82666,-0.25289 -2.41611,-0.78197c-0.50581,-0.45395 -0.6145,-2.26404 -0.65566,-2.95507c-0.36519,-6.12496 0.02769,-12.41143 0.03003,-18.55088l0.02812,-13.1461c0.0167,-2.00104 -0.08394,-4.06285 0.08306,-6.05423c0.06123,-0.72881 0.17681,-1.68855 0.70371,-2.24749c0.4207,-0.44619 1.35527,-0.5998 1.93433,-0.67653c1.91953,-0.25407 3.95508,-0.15551 5.8916,-0.17001z" id="Path 1" fill="#000000"/><path d="M935.23548,460.69555c1.0853,-0.07219 2.18848,-0.07615 3.27627,-0.09313c0.84302,-0.01303 2.47251,-0.0842 3.09082,0.55104c1.03315,1.06107 0.7106,4.47975 0.71191,5.88407c0.00088,1.04804 -0.02769,2.4462 -0.84785,3.2248c-0.31187,0.29609 -0.70767,0.34925 -1.11445,0.40035c-1.42456,0.17894 -2.94814,0.0678 -4.38413,0.07l-8.00786,0.00615c0.06123,2.19067 0.0249,4.38208 0.00308,6.57319c3.17417,-0.23283 6.50391,-0.21614 9.68687,-0.13706c0.86309,0.02138 2.39561,0.08069 2.99941,0.76381c0.76582,0.86617 0.57905,5.52618 0.5269,6.78333c-0.02607,0.62982 -0.07515,1.52337 -0.58799,1.97087c-0.4519,0.3942 -1.27368,0.55206 -1.85127,0.62133c-1.27017,0.15215 -2.61738,0.0495 -3.89897,0.05052c-2.31489,0.00205 -4.64062,0.04759 -6.95273,-0.07571c0.06108,2.09212 0.00454,4.18556 -0.03149,6.27769c3.90264,-0.08962 9.18062,-0.45102 12.95903,0.10016c0.05991,0.03998 0.11675,0.08186 0.17065,0.12974c0.6583,0.58413 0.73271,1.33974 0.79028,2.1731c0.08438,1.21937 0.31318,6.0576 -0.46465,6.8955c-0.42422,0.45688 -1.18477,0.58808 -1.77671,0.6181c-3.88506,0.19696 -7.83369,0.05213 -11.72769,0.05857c-2.34624,0.00395 -4.75137,0.20369 -7.09014,0.06824c-0.59531,-0.03441 -1.89741,-0.07629 -2.31768,-0.4847c-0.71675,-0.69674 -0.64438,-1.83396 -0.66299,-2.75782c-0.15146,-7.48549 0.06489,-14.9947 0.06255,-22.48282l0.00161,-9.687c0.00469,-1.79091 -0.07822,-3.65269 0.0939,-5.43246c0.05024,-0.51985 0.1708,-0.99723 0.54829,-1.38045c0.40664,-0.4128 1.11226,-0.49978 1.66216,-0.56334c1.68721,-0.19534 3.47622,-0.08801 5.17793,-0.09079c3.31831,0.0101 6.63677,-0.00161 9.95493,-0.03529z" id="Path 1" fill="#ef5d16"/><path d="M982.86853,458.62891c1.75635,-0.03148 6.66211,-0.42217 7.875,0.77215c0.59912,0.5897 0.76611,1.89473 0.85547,2.70422c0.30762,2.81361 0.09375,5.81642 0.10107,8.64965l0.15088,13.14082l1.80469,-1.12638c2.1123,-1.3185 4.35059,-3.09213 7.00781,-2.4585c1.52197,0.36301 2.25879,1.77743 3.02344,3.00866c1.22607,1.97556 2.74805,4.18278 2.15625,6.63558c-0.12012,0.49832 -0.33398,0.92913 -0.69873,1.29405c-1.45605,1.45703 -6.17725,3.96196 -8.25,5.22701l-7.86182,4.83442c-1.44434,0.88667 -2.90039,1.90952 -4.44287,2.60919c-0.6709,0.31249 -1.3916,0.50535 -2.12842,0.57007c-0.79834,0.06692 -1.79443,0.00923 -2.42725,-0.54166c-0.68262,-0.5935 -0.80127,-1.50433 -0.85986,-2.35395c-0.13184,-1.85504 -0.06592,-3.74274 -0.104,-5.60306c-0.08643,-4.88597 -0.14648,-9.77237 -0.17871,-14.65892l-0.12744,-11.3691c-0.03516,-2.45558 -0.16846,-4.9441 -0.01465,-7.39704c0.06006,-0.94612 0.05859,-2.21996 0.70898,-2.95741c0.84229,-0.95432 2.24268,-0.90292 3.41016,-0.9798z" id="Path 1" fill="#000000"/><path d="M981.78895,459.62745c1.71973,-0.06267 3.45996,-0.07014 5.18262,-0.06106c1.01367,0.00542 2.37451,-0.00513 3.13037,0.76937c0.37207,0.38073 0.4585,1.88829 0.49658,2.44708c0.17725,2.63408 0.00879,5.32103 0.04834,7.96316c0.07617,5.01878 0.24609,10.03654 0.20654,15.05737c1.89404,-1.19638 3.78076,-2.41457 5.69678,-3.57522c0.98145,-0.59394 2.21045,-1.36434 3.39404,-1.06327c1.66992,0.42481 2.64697,2.45924 3.47314,3.82577c0.80859,1.33417 1.87939,3.00515 1.46191,4.63322c-0.34717,1.35028 -5.18848,3.84378 -6.54346,4.65753l-9.65332,5.93195c-1.68604,1.03252 -3.62695,2.53655 -5.49023,3.13899c-0.66504,0.21497 -1.58643,0.28218 -2.2207,-0.06385c-0.35156,-0.19168 -0.58008,-0.49129 -0.68994,-0.87393c-0.39697,-1.3907 -0.22705,-7.93461 -0.26221,-9.90402c-0.17871,-7.06478 -0.26807,-14.13146 -0.26953,-21.19858c-0.01465,-2.95595 -0.14062,-5.92214 -0.04248,-8.87662c0.01904,-0.57271 0.00439,-1.35702 0.29297,-1.85914c0.36621,-0.63773 1.13232,-0.78533 1.78857,-0.94876z" id="Path 1" fill="#ef5d16"/><path d="M1048.02186,495.90947c0.0249,2.05683 0.4043,5.00004 -0.38525,6.8851c-0.27979,0.66672 -0.75586,1.19023 -1.43262,1.46289c-1.6377,0.65984 -8.74512,0.54049 -10.38135,-0.17279c-0.49951,-0.21819 -0.76904,-0.46815 -0.96973,-0.98141c-0.33545,-0.85387 -0.4585,-1.78827 -0.5083,-2.69983c-0.13037,-2.37884 -0.03955,-4.8044 -0.03955,-7.18764l0.01172,-13.01138c0.01611,-3.37197 0.01318,-6.74394 -0.01025,-10.11591c-0.01172,-2.0539 -0.09814,-4.14529 0.02051,-6.19554c0.04541,-0.79031 0.16699,-1.65326 0.49219,-2.37987c0.29004,-0.64476 0.64893,-0.88872 1.29492,-1.13883c-0.52441,0.76044 -1.17041,1.13444 -1.31982,2.10618c-0.375,2.45045 -0.1626,5.1967 -0.16113,7.67556l0.00879,14.18886l-0.00439,11.74632c0,1.84216 -0.21533,4.04147 0.12451,5.83794c0.12598,0.65852 0.41602,1.33461 0.9917,1.71432c1.17627,0.77523 8.08887,0.74755 9.64014,0.41456c0.69727,-0.14966 1.35205,-0.48353 1.74316,-1.09768c1.11914,-1.75591 0.1084,-6.2402 0.88477,-7.05087z" id="Path 1" fill-opacity="0.96863" fill="#000000"/></g></g></g></g></g></g></svg>